<svg xmlns="http://www.w3.org/2000/svg" xmlns:xlink="http://www.w3.org/1999/xlink" width="160" height="54" viewBox="0 0 160 54">
    <defs>
        <path id="a" d="M130.135.118c7.785 0 15.023 3.318 19.992 8.975 4.056 4.617 6.324 10.484 6.324 16.691 0 14.182-11.788 25.667-26.316 25.667-6.104 0-11.892-2.034-16.54-5.702a1.078 1.078 0 0 1 1.336-1.693c4.27 3.37 9.588 5.238 15.204 5.238 13.349 0 24.16-10.532 24.16-23.51 0-5.676-2.074-11.04-5.788-15.267-4.563-5.194-11.211-8.242-18.372-8.242-5.746 0-11.179 1.956-15.493 5.47a1.078 1.078 0 0 1-1.362-1.673c4.697-3.824 10.61-5.954 16.855-5.954zm-83.066 28.87c1.3 0 2.34.651 2.99 1.302v-.911h2.34v9.893c0 4.036-2.34 5.728-5.2 5.728-2.73 0-4.291-1.822-4.941-3.254l2.08-.912c.26.912 1.3 1.953 2.73 1.953 1.82 0 2.991-1.172 2.991-3.254v-.782h-.13c-.52.651-1.56 1.302-2.86 1.302-2.861 0-5.331-2.343-5.331-5.467 0-3.124 2.6-5.598 5.33-5.598zm54.61.39l2.86 7.03h.13l2.73-7.03H110l-6.631 15.362h-2.47l2.47-5.468-4.291-9.893h2.6zm-38.748-.26c2.861 0 4.161 2.213 4.681 3.515l.26.651-7.411 3.124c.65 1.172 1.43 1.693 2.73 1.693s2.08-.651 2.731-1.563l1.82 1.302c-.52.911-2.08 2.474-4.55 2.474-3.121 0-5.462-2.474-5.462-5.598 0-3.385 2.34-5.598 5.201-5.598zm-39.917 0c3.12 0 5.591 2.213 5.591 5.598 0 3.254-2.47 5.598-5.59 5.598-3.121 0-5.592-2.474-5.592-5.598 0-3.254 2.47-5.598 5.591-5.598zm12.092 0c3.121 0 5.591 2.213 5.591 5.598 0 3.254-2.47 5.598-5.59 5.598-3.121 0-5.592-2.474-5.592-5.598 0-3.254 2.47-5.598 5.591-5.598zM8.712 23c2.6 0 4.42 1.041 5.85 2.343l-1.69 1.693c-1.04-.912-2.47-1.693-4.29-1.693-3.381 0-6.112 2.734-6.112 6.249 0 3.515 2.6 6.248 6.112 6.248 2.21 0 3.51-.911 4.29-1.692.65-.651 1.17-1.692 1.3-2.994h-5.59V30.81h8.061c.13.39.13.91.13 1.432 0 1.692-.52 3.905-2.08 5.467-1.56 1.692-3.38 2.473-5.981 2.473C4.03 40.183 0 36.278 0 31.592 0 26.905 4.03 23 8.712 23zm85.295 5.988c2.73 0 4.941 1.692 5.201 4.556v6.249h-2.34V38.49h-.13c-.65.781-1.43 1.562-3.121 1.562-2.08 0-4.03-1.432-4.03-3.645 0-2.343 2.34-3.645 4.68-3.645 1.04 0 2.08.39 2.47.651v-.13c-.13-1.302-1.3-2.083-2.6-2.083-.91 0-1.69.26-2.21 1.172l-2.21-.911c.65-1.693 2.47-2.474 4.29-2.474zm-5.981-5.467v16.272h-2.47V23.52h2.47zm-9.102 0c2.73 0 5.331 1.952 5.331 5.077 0 3.124-2.6 5.077-5.33 5.077h-3.381v6.118h-2.47V23.52zm-22.494 0v16.272h-2.47V23.52h2.47zm37.967 11.325c-1.17 0-2.6.39-2.6 1.692 0 1.042 1.17 1.432 1.95 1.432 1.3 0 2.6-1.041 2.86-2.603-.65-.26-1.17-.52-2.21-.52zM47.2 31.201c-1.69 0-3.121 1.432-3.121 3.385 0 1.952 1.43 3.384 3.12 3.384 1.69 0 2.991-1.432 2.991-3.384 0-1.953-1.3-3.385-2.99-3.385zm-24.185 0c-1.69 0-3.12 1.432-3.12 3.385 0 1.952 1.43 3.384 3.12 3.384 1.69 0 3.12-1.432 3.12-3.384 0-2.083-1.43-3.385-3.12-3.385zm12.092 0c-1.69 0-3.12 1.432-3.12 3.385 0 1.952 1.43 3.384 3.12 3.384 1.69 0 3.121-1.432 3.121-3.384 0-2.083-1.43-3.385-3.12-3.385zm89.586-16.183l9.06 10.489-8.977 10.384c-.364-.1-.6-.468-.6-1.039v-18.82c0-.475.162-.811.426-.968l.091-.046zm9.578 11.089l2.655 3.075-10.903 6.31 8.248-9.385zM62.93 31.2c-1.17 0-2.86 1.172-2.86 3.255l4.94-2.083c-.26-.651-1.17-1.172-2.08-1.172zm16.123-5.467h-3.51v5.597h3.51c1.69 0 2.73-1.432 2.86-2.864 0-1.171-1.04-2.733-2.86-2.733zm58.676-3.564l4.212 2.438c.797.461.805 1.205 0 1.67l-4.319 2.5-2.816-3.282 2.923-3.326zm-11.481-6.646L137 21.747l-2.715 3.141-8.036-9.364zM24.117 10.467c.889 0 1.592.335 2.11 1.005.516.67.775 1.602.775 2.796v.116c0 1.125-.258 2.032-.773 2.72-.514.689-1.212 1.033-2.091 1.033-.898 0-1.604-.285-2.12-.855v3.562h-1.264v-10.24h1.155l.062.82c.515-.638 1.23-.957 2.146-.957zm55.323 0c.853 0 1.52.213 2.003.639.483.426.734 1.013.752 1.76v3.405c0 .679.087 1.219.26 1.62V18H81.13c-.073-.146-.132-.406-.178-.78-.588.611-1.29.917-2.105.917-.73 0-1.328-.206-1.795-.619a2.002 2.002 0 0 1-.7-1.569c0-.77.292-1.368.878-1.794.586-.426 1.41-.64 2.471-.64h1.23v-.58c0-.442-.131-.795-.396-1.057-.264-.262-.654-.393-1.169-.393-.45 0-.83.114-1.135.342-.305.228-.458.504-.458.827h-1.271c0-.369.131-.725.393-1.07a2.683 2.683 0 0 1 1.066-.816c.45-.2.943-.301 1.48-.301zm-63.225 0c.838 0 1.519.216 2.04.65.522.432.783.986.783 1.66h-1.271c0-.346-.147-.645-.441-.895-.294-.25-.665-.376-1.111-.376-.46 0-.82.1-1.08.3-.26.201-.39.463-.39.787 0 .305.12.535.362.69.242.155.678.303 1.31.445.63.14 1.142.31 1.534.505.392.196.683.432.872.708.189.276.283.612.283 1.008 0 .661-.264 1.19-.793 1.59-.528.398-1.214.598-2.057.598-.593 0-1.117-.105-1.572-.315a2.557 2.557 0 0 1-1.07-.878 2.117 2.117 0 0 1-.386-1.22h1.264c.023.423.193.76.51 1.008.316.248.734.372 1.254.372.478 0 .862-.096 1.152-.29.29-.194.434-.452.434-.776 0-.342-.129-.607-.386-.796-.258-.19-.707-.352-1.347-.49-.64-.136-1.149-.3-1.525-.491-.376-.192-.653-.42-.834-.684a1.635 1.635 0 0 1-.27-.943c0-.606.257-1.119.77-1.538.512-.42 1.167-.63 1.965-.63zm41.255 0c.961 0 1.709.317 2.242.95.533.633.8 1.54.8 2.72v.527H55.5c.018.73.231 1.318.64 1.767.407.449.925.673 1.554.673.447 0 .825-.09 1.135-.273.31-.182.581-.424.814-.725l.772.602c-.62.952-1.55 1.429-2.789 1.429-1.003 0-1.818-.33-2.447-.988-.63-.659-.944-1.54-.944-2.642v-.233c0-.733.14-1.388.42-1.965a3.28 3.28 0 0 1 1.177-1.353 2.956 2.956 0 0 1 1.637-.49zm-25.84 0c1.007 0 1.822.348 2.444 1.046.622.697.933 1.624.933 2.782v.089c0 .72-.138 1.366-.414 1.938a3.14 3.14 0 0 1-1.182 1.336c-.513.32-1.102.479-1.767.479-1.003 0-1.815-.349-2.437-1.046-.623-.697-.934-1.62-.934-2.769v-.089c0-.724.143-1.376.428-1.955a3.187 3.187 0 0 1 1.19-1.34c.507-.314 1.087-.471 1.739-.471zM63.349 7.5V18h-1.265V7.5h1.265zm-59.384.547c.866 0 1.631.191 2.297.574.665.383 1.179.927 1.541 1.634.363.706.546 1.517.55 2.433v.636c0 .939-.18 1.762-.543 2.468a3.823 3.823 0 0 1-1.552 1.627c-.672.378-1.455.572-2.348.581H1.155V8.047h2.81zm41.726 2.557V18H44.42v-7.396h1.271zm26.599-.137c1.563 0 2.352.882 2.365 2.645V18h-1.264v-4.895c-.005-.533-.127-.927-.366-1.182-.24-.255-.612-.383-1.118-.383-.41 0-.77.11-1.08.328-.31.219-.551.506-.724.861V18h-1.265v-7.396h1.196l.041.93c.565-.712 1.304-1.067 2.215-1.067zm-23.953.137l1.88 5.68 1.832-5.68h1.292L50.688 18h-.963l-2.68-7.396h1.292zm-36.825 0V18h-1.265v-7.396h1.265zm28.533-.137c1.563 0 2.351.882 2.365 2.645V18h-1.264v-4.895c-.005-.533-.127-.927-.366-1.182-.24-.255-.612-.383-1.118-.383-.41 0-.77.11-1.08.328-.31.219-.551.506-.725.861V18h-1.264v-7.396h1.196l.041.93c.565-.712 1.303-1.067 2.215-1.067zM23.74 11.54c-.765 0-1.34.34-1.722 1.019v3.534c.378.674.957 1.011 1.736 1.011.606 0 1.088-.24 1.446-.72.357-.481.536-1.196.536-2.144 0-.834-.177-1.492-.533-1.975-.355-.483-.843-.725-1.463-.725zm7.889-.034c-.624 0-1.128.248-1.51.745-.384.497-.575 1.208-.575 2.133 0 .82.19 1.479.57 1.975.381.497.89.745 1.529.745.642 0 1.153-.251 1.53-.755.38-.503.568-1.209.568-2.116 0-.81-.192-1.468-.577-1.972-.386-.503-.897-.755-1.535-.755zm49.3 2.905h-.99c-1.55 0-2.325.454-2.325 1.36 0 .397.132.707.397.93.264.223.604.335 1.018.335.397 0 .773-.102 1.128-.307a1.86 1.86 0 0 0 .773-.8V14.41zM4 9.127H2.468v7.8h1.38c1.012 0 1.8-.315 2.362-.944.563-.629.845-1.524.845-2.686v-.581c0-1.13-.266-2.009-.797-2.635-.53-.627-1.284-.945-2.259-.954zm53.47 2.379c-.51 0-.938.186-1.284.557-.347.371-.561.892-.643 1.562h3.705v-.096c-.036-.642-.21-1.14-.52-1.493-.31-.354-.729-.53-1.257-.53zm-10.233-4l-1.832 2.01h-1.018l1.32-2.01h1.53zM10.89 7.91c.246 0 .433.07.56.212a.747.747 0 0 1 .192.52.722.722 0 0 1-.192.512c-.127.137-.314.205-.56.205-.246 0-.432-.068-.557-.205a.73.73 0 0 1-.188-.512c0-.205.062-.379.188-.52.125-.141.31-.212.557-.212z"/>
    </defs>
    <g fill="none" fill-rule="evenodd" transform="translate(0 1)">
        <mask id="b" fill="#fff">
            <use xlink:href="#a"/>
        </mask>
        <use fill="#FFF" fill-rule="nonzero" xlink:href="#a"/>
        <g fill="#000" fill-opacity=".6" mask="url(#b)">
            <path d="M0-1h160v54H0z"/>
        </g>
    </g>
</svg>
