<svg xmlns="http://www.w3.org/2000/svg" xmlns:xlink="http://www.w3.org/1999/xlink" width="160" height="54" viewBox="0 0 160 54">
    <defs>
        <path id="a" d="M129.423 0c7.863 0 15.172 3.361 20.19 9.092C153.71 13.77 156 19.712 156 26c0 14.366-11.905 26-26.577 26-6.164 0-12.01-2.06-16.704-5.776a1.095 1.095 0 0 1-.18-1.534 1.087 1.087 0 0 1 1.53-.181c4.312 3.413 9.683 5.306 15.354 5.306 13.481 0 24.399-10.669 24.399-23.815 0-5.75-2.094-11.183-5.845-15.466-4.608-5.261-11.322-8.35-18.554-8.35-5.803 0-11.289 1.983-15.646 5.542-.467.38-1.153.31-1.532-.158a1.095 1.095 0 0 1 .157-1.537C117.145 2.158 123.116 0 129.423 0zm-98.7 29.238c1.302 0 2.314.482 3.037 1.446.722.963 1.084 2.291 1.084 3.984v.146c0 1.628-.37 2.932-1.109 3.912s-1.736 1.47-2.993 1.47c-1.068 0-1.93-.372-2.588-1.114v4.98h-2.822V29.434h2.617l.098 1.035c.683-.82 1.575-1.23 2.676-1.23zm-11.26 0c1.302 0 2.314.482 3.037 1.446.723.963 1.084 2.291 1.084 3.984v.146c0 1.628-.37 2.932-1.108 3.912-.74.98-1.737 1.47-2.994 1.47-1.067 0-1.93-.372-2.587-1.114v4.98h-2.823V29.434h2.617l.098 1.035c.684-.82 1.576-1.23 2.676-1.23zm79.951 0c1.445 0 2.583.456 3.413 1.367.83.912 1.245 2.204 1.245 3.877v1.153h-6.728c.09.69.366 1.243.825 1.66.459.417 1.04.625 1.743.625 1.087 0 1.937-.394 2.549-1.182l1.387 1.553c-.424.599-.996 1.066-1.72 1.401-.722.336-1.523.503-2.401.503-1.55 0-2.811-.475-3.785-1.425-.973-.951-1.46-2.217-1.46-3.8v-.273c0-1.06.205-2.01.616-2.846.41-.837.99-1.482 1.743-1.934.752-.452 1.61-.679 2.573-.679zm-18.418 0c1.426 0 2.59.436 3.491 1.309.902.872 1.405 2.057 1.51 3.555l.019.722c0 1.621-.453 2.922-1.358 3.902s-2.119 1.47-3.642 1.47c-1.524 0-2.74-.489-3.648-1.466-.908-.976-1.362-2.304-1.362-3.984v-.127c0-1.048.202-1.982.605-2.803a4.432 4.432 0 0 1 1.743-1.904c.759-.45 1.64-.674 2.642-.674zm-7.637-2.402v2.598h1.807v2.07h-1.807v5.273c0 .391.075.67.225.84.15.17.436.254.86.254a4.5 4.5 0 0 0 .83-.068v2.138a5.81 5.81 0 0 1-1.71.254c-1.979 0-2.988-.999-3.027-2.998v-5.693h-1.543v-2.07h1.543v-2.598h2.822zm-10.4-1.25c1.016 0 1.92.184 2.715.552.794.368 1.411.887 1.85 1.557.44.67.66 1.433.66 2.285h-2.93c0-.65-.205-1.157-.615-1.518-.41-.361-.987-.542-1.729-.542-.716 0-1.273.151-1.67.454a1.432 1.432 0 0 0-.595 1.196c0 .463.232.85.698 1.162.465.313 1.15.606 2.055.88 1.667.5 2.881 1.122 3.643 1.865.762.742 1.143 1.666 1.143 2.773 0 1.23-.466 2.196-1.397 2.896-.93.7-2.184 1.05-3.76 1.05-1.093 0-2.09-.2-2.988-.601-.898-.4-1.584-.95-2.056-1.646s-.708-1.504-.708-2.422h2.94c0 1.57.937 2.354 2.812 2.354.697 0 1.24-.142 1.631-.425.39-.283.586-.679.586-1.186 0-.554-.195-.979-.586-1.275-.39-.296-1.094-.609-2.11-.937-1.015-.33-1.819-.653-2.411-.972-1.615-.872-2.422-2.048-2.422-3.525 0-.769.216-1.454.65-2.056.432-.602 1.054-1.073 1.864-1.411.811-.339 1.72-.508 2.73-.508zm-16.514 3.652c1.446 0 2.583.456 3.413 1.367.83.912 1.246 2.204 1.246 3.877v1.153h-6.729c.091.69.366 1.243.825 1.66.46.417 1.04.625 1.743.625 1.088 0 1.937-.394 2.55-1.182l1.386 1.553c-.423.599-.996 1.066-1.719 1.401-.723.336-1.523.503-2.402.503-1.55 0-2.811-.475-3.784-1.425-.974-.951-1.46-2.217-1.46-3.8v-.273c0-1.06.205-2.01.615-2.846.41-.837.991-1.482 1.743-1.934.752-.452 1.61-.679 2.573-.679zM8.076 25.781L13.398 40h-3.115l-.986-2.93H4.16L3.184 40H.068l5.293-14.219h2.715zM39.57 25v15h-2.832V25h2.832zm53.282 4.238c.312 0 .605.043.878.127l-.039 2.715a7.667 7.667 0 0 0-1.015-.078c-1.068 0-1.768.361-2.1 1.084V40h-2.822V29.434h2.666l.078 1.26c.566-.97 1.351-1.456 2.354-1.456zm-11.856 2.285c-.69 0-1.224.269-1.601.806-.378.537-.567 1.369-.567 2.495 0 1.003.189 1.77.567 2.3.377.53.917.796 1.62.796.684 0 1.218-.262 1.602-.786.384-.524.576-1.363.576-2.515 0-.983-.192-1.745-.576-2.285-.384-.54-.924-.81-1.62-.81zm-51.016.01c-.885 0-1.494.339-1.826 1.016v4.326c.345.697.96 1.045 1.846 1.045 1.348 0 2.021-1.104 2.021-3.31 0-.984-.174-1.742-.522-2.276-.348-.534-.854-.8-1.519-.8zm-11.26 0c-.885 0-1.493.339-1.825 1.016v4.326c.345.697.96 1.045 1.845 1.045 1.348 0 2.022-1.104 2.022-3.31 0-.984-.174-1.742-.523-2.276-.348-.534-.854-.8-1.518-.8zm116.401-13.515c.758.033 2.895.295 4.269 2.221-.114.07-2.55 1.428-2.524 4.263.03 3.388 3.098 4.516 3.134 4.53-.029.076-.492 1.607-1.618 3.183-.97 1.366-1.98 2.727-3.572 2.754-1.56.03-2.062-.888-3.848-.888s-2.344.861-3.822.917c-1.537.058-2.702-1.475-3.684-2.834-2.006-2.78-3.535-7.859-1.482-11.283 1.024-1.703 2.847-2.778 4.829-2.808 1.51-.024 2.93.973 3.852.973.922 0 2.648-1.205 4.466-1.028zM6.72 29.375L4.95 34.697h3.555l-1.787-5.322zm92.685 2.148c-.56 0-1.014.19-1.362.567-.348.377-.571.918-.669 1.62h3.926v-.224c-.013-.625-.182-1.108-.508-1.45-.326-.342-.788-.513-1.387-.513zm-52.968 0c-.56 0-1.014.19-1.363.567-.348.377-.571.918-.669 1.62h3.926v-.224c-.013-.625-.182-1.108-.508-1.45-.325-.342-.787-.513-1.386-.513zM24.117 10.467c.889 0 1.592.335 2.11 1.005.516.67.775 1.602.775 2.796v.116c0 1.125-.258 2.032-.773 2.72-.514.689-1.212 1.033-2.091 1.033-.898 0-1.604-.285-2.12-.855v3.562h-1.264v-10.24h1.155l.062.82c.515-.638 1.23-.957 2.146-.957zm7.513 0c1.007 0 1.822.348 2.444 1.046.622.697.933 1.624.933 2.782v.089c0 .72-.138 1.366-.414 1.938a3.14 3.14 0 0 1-1.182 1.336c-.513.32-1.102.479-1.767.479-1.003 0-1.815-.349-2.437-1.046-.623-.697-.934-1.62-.934-2.769v-.089c0-.724.143-1.376.428-1.955a3.187 3.187 0 0 1 1.19-1.34c.507-.314 1.087-.471 1.739-.471zm-15.415 0c.838 0 1.519.216 2.04.65.522.432.783.986.783 1.66h-1.271c0-.346-.147-.645-.441-.895-.294-.25-.665-.376-1.111-.376-.46 0-.82.1-1.08.3-.26.201-.39.463-.39.787 0 .305.12.535.362.69.242.155.678.303 1.31.445.63.14 1.142.31 1.534.505.392.196.683.432.872.708.189.276.283.612.283 1.008 0 .661-.264 1.19-.793 1.59-.528.398-1.214.598-2.057.598-.593 0-1.117-.105-1.572-.315a2.557 2.557 0 0 1-1.07-.878 2.117 2.117 0 0 1-.386-1.22h1.264c.023.423.193.76.51 1.008.316.248.734.372 1.254.372.478 0 .862-.096 1.152-.29.29-.194.434-.452.434-.776 0-.342-.129-.607-.386-.796-.258-.19-.707-.352-1.347-.49-.64-.136-1.149-.3-1.525-.491-.376-.192-.653-.42-.834-.684a1.635 1.635 0 0 1-.27-.943c0-.606.257-1.119.77-1.538.512-.42 1.167-.63 1.965-.63zm41.255 0c.961 0 1.709.317 2.242.95.533.633.8 1.54.8 2.72v.527H55.5c.018.73.231 1.318.64 1.767.407.449.925.673 1.554.673.447 0 .825-.09 1.135-.273.31-.182.581-.424.814-.725l.772.602c-.62.952-1.55 1.429-2.789 1.429-1.003 0-1.818-.33-2.447-.988-.63-.659-.944-1.54-.944-2.642v-.233c0-.733.14-1.388.42-1.965a3.28 3.28 0 0 1 1.177-1.353 2.956 2.956 0 0 1 1.637-.49zm21.97 0c.853 0 1.52.213 2.003.639.483.426.734 1.013.752 1.76v3.405c0 .679.087 1.219.26 1.62V18H81.13c-.073-.146-.132-.406-.178-.78-.588.611-1.29.917-2.105.917-.73 0-1.328-.206-1.795-.619a2.002 2.002 0 0 1-.7-1.569c0-.77.292-1.368.878-1.794.586-.426 1.41-.64 2.471-.64h1.23v-.58c0-.442-.131-.795-.396-1.057-.264-.262-.654-.393-1.169-.393-.45 0-.83.114-1.135.342-.305.228-.458.504-.458.827h-1.271c0-.369.131-.725.393-1.07a2.683 2.683 0 0 1 1.066-.816c.45-.2.943-.301 1.48-.301zM3.965 8.047c.866 0 1.631.191 2.297.574.665.383 1.179.927 1.541 1.634.363.706.546 1.517.55 2.433v.636c0 .939-.18 1.762-.543 2.468a3.823 3.823 0 0 1-1.552 1.627c-.672.378-1.455.572-2.348.581H1.155V8.047h2.81zm68.325 2.42c1.563 0 2.352.882 2.365 2.645V18h-1.264v-4.895c-.005-.533-.127-.927-.366-1.182-.24-.255-.612-.383-1.118-.383-.41 0-.77.11-1.08.328-.31.219-.551.506-.724.861V18h-1.265v-7.396h1.196l.041.93c.565-.712 1.304-1.067 2.215-1.067zm-32.245 0c1.563 0 2.351.882 2.365 2.645V18h-1.264v-4.895c-.005-.533-.127-.927-.366-1.182-.24-.255-.612-.383-1.118-.383-.41 0-.77.11-1.08.328-.31.219-.551.506-.725.861V18h-1.264v-7.396h1.196l.041.93c.565-.712 1.303-1.067 2.215-1.067zM63.349 7.5V18h-1.265V7.5h1.265zm-15.012 3.104l1.88 5.68 1.832-5.68h1.292L50.688 18h-.963l-2.68-7.396h1.292zm-2.646 0V18H44.42v-7.396h1.271zm-34.18 0V18h-1.264v-7.396h1.265zM134.975 14c.158 1.017-.421 2.036-1.285 2.768-.86.732-2.275 1.3-3.659 1.225-.185-.994.513-2.03 1.31-2.68.886-.73 2.394-1.279 3.634-1.313zM31.63 11.506c-.624 0-1.128.248-1.51.745-.384.497-.575 1.208-.575 2.133 0 .82.19 1.479.57 1.975.381.497.89.745 1.529.745.642 0 1.153-.251 1.53-.755.38-.503.568-1.209.568-2.116 0-.81-.192-1.468-.577-1.972-.386-.503-.897-.755-1.535-.755zm-7.889.034c-.765 0-1.34.34-1.722 1.019v3.534c.378.674.957 1.011 1.736 1.011.606 0 1.088-.24 1.446-.72.357-.481.536-1.196.536-2.144 0-.834-.177-1.492-.533-1.975-.355-.483-.843-.725-1.463-.725zm57.19 2.871h-.992c-1.549 0-2.324.454-2.324 1.36 0 .397.132.707.397.93.264.223.604.335 1.018.335.397 0 .773-.102 1.128-.307a1.86 1.86 0 0 0 .773-.8V14.41zM3.999 9.127H2.468v7.8h1.38c1.012 0 1.8-.315 2.362-.944.563-.629.845-1.524.845-2.686v-.581c0-1.13-.266-2.009-.797-2.635-.53-.627-1.284-.945-2.259-.954zm53.47 2.379c-.51 0-.938.186-1.284.557-.347.371-.561.892-.643 1.562h3.705v-.096c-.036-.642-.21-1.14-.52-1.493-.31-.354-.729-.53-1.257-.53zm-10.233-4l-1.832 2.01h-1.018l1.32-2.01h1.53zM10.89 7.91c.246 0 .433.07.56.212a.747.747 0 0 1 .192.52.722.722 0 0 1-.192.512c-.127.137-.314.205-.56.205-.246 0-.432-.068-.557-.205a.73.73 0 0 1-.188-.512c0-.205.062-.379.188-.52.125-.141.31-.212.557-.212z"/>
    </defs>
    <g fill="none" fill-rule="evenodd" transform="translate(0 1)">
        <mask id="b" fill="#fff">
            <use xlink:href="#a"/>
        </mask>
        <g fill="#000" fill-opacity=".6" mask="url(#b)">
            <path d="M0-1h160v54H0z"/>
        </g>
    </g>
</svg>
