<svg xmlns="http://www.w3.org/2000/svg" xmlns:xlink="http://www.w3.org/1999/xlink" width="48" height="48" viewBox="0 0 48 48">
    <defs>
        <path id="a" d="M0 .095h47.905v47.719H0z"/>
    </defs>
    <g fill="none" fill-rule="evenodd">
        <g transform="translate(0 .091)">
            <mask id="b" fill="#fff">
                <use xlink:href="#a"/>
            </mask>
            <path fill="#E1413E" d="M47.905 35.742c0 6.64-5.454 12.072-12.12 12.072H12.12C5.454 47.814 0 42.381 0 35.742V12.167C0 5.527 5.454.095 12.12.095h23.666c6.665 0 12.119 5.432 12.119 12.072v23.575z" mask="url(#b)"/>
        </g>
        <path fill="#FFF" d="M17.894 27.151c-1.727-1.005-2.878-1.235-4.112-1.235-.686 0-1.453.172-1.563.862-.082.603.466.747 1.618 1.006 2.11.46 4.248 1.063 4.522 3.334l1.152-5.95-1.617 1.983zm15.9.173l3.152-4.254h4.688L35 31.262l-.987 5.116h-4.002l1.124-5.72-2.056-3.708-2.686 3.076 3.618 6.352h-4.824l-2.825-5.289-.96 5.289h-4.057l.576-3.047c-1.097 2.616-3.152 3.478-5.948 3.478-2.358 0-4.524-.747-5.702-2.098l2.22-2.731c.96.977 2.44 1.495 4.002 1.495 1.097 0 1.755-.431 1.782-1.007.027-.976-1.59-1.12-3.07-1.551-1.672-.489-3.454-1.667-2.988-4.14.356-1.897 1.974-4.11 6.085-4.11 2.303 0 4.003.546 5.4 1.581l.22-1.178h4.058l-1.18 5.777 4.771-5.777h4.03l2.193 4.254zM15.732 19.104l.765-3.94-.036-.013-1.064 1.68-.777 1.166h-1.386l-.335-1.226-.394-1.62-.048.036-.765 3.917H9.899l1.614-8.287h1.625l.634 2.405.562 2.489h.048l1.506-2.489 1.553-2.405h1.698l-1.614 8.287zM19.952 12.306l.286-1.489h1.674l-.287 1.489h-1.673zm-1.327 6.798l1.147-5.894h1.674l-1.148 5.894h-1.673zM24.733 19.104l.681-3.488c.064-.302.028-.528-.107-.68a.703.703 0 0 0-.55-.225c-.247 0-.466.075-.658.226-.19.15-.319.377-.382.679l-.682 3.488h-1.673l1.16-5.905h1.673l-.084.44h.024c.183-.135.399-.252.646-.351.247-.1.482-.149.705-.149.294 0 .562.046.8.137.24.091.435.226.587.405.15.178.254.4.31.667.056.266.048.57-.024.91l-.753 3.846h-1.673zM30.829 19.116l.681-3.488c.12-.604-.1-.905-.657-.905-.247 0-.466.075-.658.226-.19.15-.319.377-.382.679l-.681 3.488h-1.674l1.721-8.668h1.674l-.646 3.18.048.011c.183-.135.395-.25.634-.345.239-.095.47-.143.693-.143.295 0 .562.046.8.137.24.091.435.226.587.405.15.178.255.4.31.666.056.267.048.57-.023.911l-.73 3.846H30.83zM35.539 16.925a.83.83 0 0 0 .143.483c.095.139.27.208.526.208a.775.775 0 0 0 .568-.232c.155-.155.28-.341.376-.56.096-.218.163-.444.203-.678.04-.235.06-.431.06-.59 0-.11-.008-.218-.024-.321a.762.762 0 0 0-.09-.268.463.463 0 0 0-.19-.179.713.713 0 0 0-.33-.065.813.813 0 0 0-.597.238c-.16.159-.287.353-.383.583a3.18 3.18 0 0 0-.203.72c-.04.25-.06.47-.06.661m1.076-3.774c.183 0 .387.036.61.107.223.072.414.199.574.381l.024-.012.083-.417h1.674l-1.148 5.894h-1.673l.095-.464-.035-.012a1.885 1.885 0 0 1-.598.381c-.12.048-.24.088-.359.12-.12.03-.227.047-.322.047-.36 0-.652-.054-.879-.16a1.292 1.292 0 0 1-.526-.43 1.58 1.58 0 0 1-.251-.607 3.634 3.634 0 0 1-.066-.696c0-.453.046-.921.138-1.405a4.56 4.56 0 0 1 .466-1.334c.219-.405.508-.738.866-1 .359-.262.801-.393 1.327-.393"/>
    </g>
</svg>
