<svg xmlns="http://www.w3.org/2000/svg" xmlns:xlink="http://www.w3.org/1999/xlink" width="88" height="33" viewBox="0 0 88 33">
    <defs>
        <path id="a" d="M18.872.003c5.03.071 8.781 1.261 11.884 3.457l.5-2.58h9.293l-2.701 12.647L48.773.88H58l5.022 9.311L70.239.881h10.734l-15.19 17.93-2.26 11.199H54.36l2.573-12.52-4.707-8.116-6.151 6.732 8.285 13.904H43.312l-6.467-11.576-2.198 11.576h-9.289l1.318-6.669c-2.511 5.725-7.218 7.613-13.62 7.613-5.395 0-10.35-1.634-13.05-4.587v-.013l5.078-5.97c2.197 2.14 5.586 3.271 9.164 3.271 2.51 0 4.017-.942 4.08-2.202.062-2.138-3.64-2.453-7.03-3.396-3.83-1.07-7.908-3.649-6.842-9.06C5.26 4.907 8.863.148 17.963.003h.91zm11.445 5.47l-3.704 4.341c-3.954-2.201-6.59-2.704-9.415-2.704-1.569 0-3.326.377-3.578 1.887-.188 1.32 1.067 1.635 3.704 2.202 4.833 1.006 9.729 2.328 10.356 7.297l2.637-13.022zM84.71 1.003c.763 0 1.345.281 1.744.844.4.563.498 1.242.295 2.037-.202.795-.648 1.474-1.335 2.038-.687.565-1.412.847-2.175.847-.772 0-1.358-.282-1.759-.844-.4-.563-.499-1.244-.296-2.041.203-.795.649-1.474 1.337-2.037s1.418-.844 2.189-.844zm-.106.397c-.65 0-1.269.243-1.854.727-.585.484-.966 1.07-1.141 1.757-.175.687-.094 1.273.243 1.759.338.486.833.729 1.484.729s1.268-.243 1.851-.729.963-1.072 1.138-1.759c.174-.684.094-1.27-.24-1.755-.336-.486-.83-.729-1.48-.729zm.05.845c.701 0 .967.334.796 1.001-.123.486-.358.777-.703.874.278.074.372.285.283.633l-.183.716h-.656l.152-.596c.077-.304-.036-.455-.34-.455h-.837l-.268 1.051h-.657l.823-3.224h1.59zm-.205.58h-.876l-.259 1.013h.837c.347 0 .564-.17.65-.513.086-.334-.031-.5-.352-.5z"/>
    </defs>
    <g fill="none" fill-rule="evenodd" transform="translate(0 1.031)">
        <mask id="b" fill="#fff">
            <use xlink:href="#a"/>
        </mask>
        <g fill="#F35C58" fill-rule="nonzero" mask="url(#b)">
            <path d="M0-.871h86.952v33H0z"/>
        </g>
    </g>
</svg>
