<svg xmlns="http://www.w3.org/2000/svg" xmlns:xlink="http://www.w3.org/1999/xlink" width="85" height="33" viewBox="0 0 85 33">
    <defs>
        <path id="a" d="M18.229.003c4.858.07 8.481 1.223 11.478 3.352l.484-2.501h8.976l-2.61 12.263L47.11.854h8.913l4.85 9.03 6.971-9.03h10.368L63.541 18.24l-2.183 10.86h-8.852l2.485-12.14-4.546-7.871-5.942 6.528L52.506 29.1h-10.67l-6.247-11.225L33.466 29.1h-8.972l1.272-6.466c-2.425 5.551-6.971 7.382-13.155 7.382-5.21 0-9.998-1.584-12.606-4.448v-.012l4.906-5.79c2.121 2.075 5.396 3.173 8.851 3.173 2.425 0 3.88-.915 3.94-2.136.062-2.074-3.515-2.379-6.79-3.293-3.698-1.038-7.638-3.539-6.608-8.786C5.08 4.76 8.56.144 17.35.004h.879zm11.055 5.305l-3.578 4.209c-3.82-2.135-6.365-2.622-9.094-2.622-1.515 0-3.213.365-3.456 1.83-.182 1.28 1.03 1.585 3.578 2.135l.538.114c4.487.965 8.882 2.328 9.464 6.962l2.548-12.628zM81.82.972c.738 0 1.299.273 1.685.818.386.546.481 1.205.285 1.975-.196.771-.626 1.43-1.29 1.977-.663.547-1.364.821-2.1.821-.746 0-1.312-.273-1.7-.819-.386-.546-.482-1.206-.285-1.979.196-.77.626-1.429 1.29-1.975.665-.545 1.37-.818 2.115-.818zm-.102.385c-.629 0-1.226.235-1.791.704-.565.47-.933 1.038-1.103 1.704-.169.666-.09 1.235.236 1.706.326.471.804.707 1.433.707s1.225-.236 1.788-.707c.563-.47.93-1.04 1.1-1.706.168-.663.09-1.23-.233-1.702-.324-.47-.8-.706-1.43-.706zm.048.819c.677 0 .934.324.77.971-.12.471-.347.753-.68.847.268.072.359.277.274.614l-.177.695h-.634l.147-.578c.074-.295-.035-.442-.329-.442h-.808l-.26 1.02h-.633l.794-3.127h1.536zm-.198.562h-.846l-.25.983h.808c.335 0 .545-.166.629-.498.082-.323-.031-.485-.34-.485z"/>
    </defs>
    <g fill="none" fill-rule="evenodd" transform="translate(0 1.703)">
        <mask id="b" fill="#fff">
            <use xlink:href="#a"/>
        </mask>
        <g fill="#000" fill-opacity=".6" mask="url(#b)">
            <path d="M0-.845h83.988v32H0z"/>
        </g>
    </g>
</svg>
